<?xml version="1.0" standalone="no"?>
<!DOCTYPE svg PUBLIC "-//W3C//DTD SVG 20010904//EN"
 "http://www.w3.org/TR/2001/REC-SVG-20010904/DTD/svg10.dtd">
<svg version="1.0" xmlns="http://www.w3.org/2000/svg"
 width="1280.000000pt" height="1284.000000pt" viewBox="0 0 1280.000000 1284.000000"
 preserveAspectRatio="xMidYMid meet">
<metadata>
Created by potrace 1.16, written by Peter Selinger 2001-2019
</metadata>
<g transform="translate(0.000000,1284.000000) scale(0.100000,-0.100000)"
fill="#000000" stroke="none">
<path d="M4585 12404 c-957 -239 -2368 -590 -3135 -781 -1133 -283 -1400 -352
-1422 -371 -26 -22 -28 -29 -28 -96 0 -80 12 -106 63 -133 18 -9 538 -143
1157 -298 l1125 -281 5 -1725 c5 -1560 8 -1736 23 -1854 96 -721 307 -1302
678 -1871 l79 -121 0 -381 0 -382 -131 -523 c-95 -380 -129 -531 -124 -555 3
-18 20 -48 37 -67 27 -31 36 -35 80 -35 59 0 103 21 122 58 7 15 44 142 80
282 37 140 68 255 70 257 1 2 33 -115 71 -260 37 -144 74 -274 82 -289 18 -38
62 -58 123 -58 43 0 56 5 80 28 52 53 52 54 -89 619 l-131 523 0 209 0 209
167 -167 c334 -332 635 -552 1038 -756 420 -214 843 -341 1337 -402 220 -27
725 -25 948 5 894 118 1666 490 2304 1112 622 606 1040 1404 1191 2270 62 357
59 256 65 2144 l5 1730 1144 286 c1128 282 1144 286 1172 318 24 27 29 41 29
83 0 60 -20 104 -58 123 -15 7 -999 258 -2187 556 -1188 298 -2597 651 -3131
786 -793 199 -983 244 -1035 243 -49 -1 -471 -102 -1804 -435z m4658 -549
c1552 -388 2830 -709 2840 -713 11 -4 -1044 -272 -2835 -720 l-2853 -712
-1285 323 -1285 324 1317 327 c1425 354 1352 333 1378 410 25 78 -38 166 -119
166 -19 0 -732 -176 -1585 -391 l-1551 -391 -1200 307 c-1508 386 -1377 351
-1340 361 267 71 5648 1412 5668 1413 15 1 1297 -316 2850 -704z m-6397 -1535
c115 -28 226 -55 247 -61 l37 -10 0 -1449 0 -1450 -255 0 -255 0 0 1510 c0
861 4 1510 9 1510 5 0 102 -23 217 -50z m7314 -1460 l0 -1510 -3380 0 -3380 0
0 1415 c0 778 2 1415 5 1415 3 0 672 -167 1488 -371 1205 -301 1489 -369 1522
-364 22 3 866 213 1875 465 1009 252 1843 459 1853 459 16 1 17 -77 17 -1509z
m-7030 -2622 c0 -523 -4 -848 -9 -842 -5 5 -43 77 -84 159 -207 416 -341 881
-392 1361 -8 76 -15 147 -15 157 0 16 19 17 250 17 l250 0 0 -852z m7040 830
c0 -56 -32 -306 -56 -438 -180 -1001 -729 -1886 -1534 -2471 -966 -702 -2216
-896 -3351 -519 -322 107 -602 244 -889 436 -323 215 -606 474 -851 779 l-89
110 0 1063 0 1062 3385 0 3385 0 0 -22z"/>
<path d="M5800 2914 c-30 -2 -147 -8 -260 -14 -797 -42 -1636 -163 -2347 -340
-1548 -383 -2641 -1025 -3032 -1781 -104 -199 -161 -408 -161 -585 0 -82 1
-84 35 -119 l36 -35 6325 0 c5858 0 6327 1 6350 16 40 27 54 65 54 147 0 160
-56 370 -148 554 -434 864 -1778 1578 -3635 1933 -532 101 -1039 163 -1727
211 -144 10 -1368 21 -1490 13z m1390 -290 c2144 -115 3981 -684 4851 -1501
93 -89 208 -223 277 -326 94 -138 179 -334 198 -457 l7 -40 -6123 0 -6123 0 7
40 c19 123 104 319 198 457 573 851 2212 1523 4283 1757 795 90 1614 114 2425
70z"/>
</g>
</svg>
